<svg xmlns="http://www.w3.org/2000/svg" xmlns:xlink="http://www.w3.org/1999/xlink" width="1920" zoomAndPan="magnify" viewBox="0 0 1440 809.999993" height="1080" preserveAspectRatio="xMidYMid meet" version="1.0"><defs><clipPath id="81334c42f9"><path d="M 663.09375 293.417969 L 777 293.417969 L 777 516.917969 L 663.09375 516.917969 Z M 663.09375 293.417969 " clip-rule="nonzero"/></clipPath></defs><rect x="-144" width="1728" fill="#ffffff" y="-80.999999" height="971.999992" fill-opacity="1"/><rect x="-144" width="1728" fill="#013ac1" y="-80.999999" height="971.999992" fill-opacity="1"/><g clip-path="url(#81334c42f9)"><path fill="#db1ca5" d="M 776.875 516.578125 C 714.089844 516.578125 663.121094 466.582031 663.121094 404.996094 C 663.121094 343.414062 714.089844 293.417969 776.875 293.417969 L 776.875 349.207031 C 745.488281 349.207031 720 374.207031 720 404.996094 C 720 435.789062 745.488281 460.789062 776.875 460.789062 Z M 776.875 516.578125 " fill-opacity="1" fill-rule="evenodd"/><path fill="#db1ca5" d="M 776.875 516.578125 C 714.089844 516.578125 663.121094 466.582031 663.121094 404.996094 C 663.121094 343.414062 714.089844 293.417969 776.875 293.417969 L 776.875 349.207031 C 745.488281 349.207031 720 374.207031 720 404.996094 C 720 435.789062 745.488281 460.789062 776.875 460.789062 Z M 776.875 516.578125 " fill-opacity="1" fill-rule="evenodd"/></g></svg>